<?xml version="1.0" standalone="no"?>
<!DOCTYPE svg PUBLIC "-//W3C//DTD SVG 20010904//EN"
 "http://www.w3.org/TR/2001/REC-SVG-20010904/DTD/svg10.dtd">
<svg version="1.0" xmlns="http://www.w3.org/2000/svg"
 width="700.000000pt" height="700.000000pt" viewBox="0 0 700.000000 700.000000"
 preserveAspectRatio="xMidYMid meet">
<metadata>
Created by potrace 1.11, written by Peter Selinger 2001-2013
</metadata>
<g transform="translate(0.000000,700.000000) scale(0.100000,-0.100000)"
fill="#000000" stroke="none">
<path d="M2863 6364 c-348 -349 -633 -637 -633 -642 0 -4 78 -85 174 -181
l174 -174 461 460 461 461 461 -461 461 -460 174 174 c96 96 174 177 174 181
0 8 -1267 1279 -1273 1277 -1 0 -287 -286 -634 -635z"/>
<path d="M2396 5183 l-176 -177 460 -460 461 -460 174 174 c96 96 175 179 175
184 0 9 -903 916 -912 916 -3 0 -84 -80 -182 -177z"/>
<path d="M3956 4901 l-458 -459 164 -163 c90 -90 172 -170 181 -177 15 -12 67
36 472 441 250 251 455 460 455 464 0 9 -342 353 -350 353 -3 0 -211 -206
-464 -459z"/>
<path d="M1816 4605 c-97 -97 -176 -179 -176 -183 0 -4 206 -213 458 -464
l458 -457 177 177 c97 98 177 180 177 183 0 2 -207 210 -459 462 l-459 457
-176 -175z"/>
<path d="M4545 4320 l-460 -460 178 -178 179 -179 -176 -175 c-97 -97 -176
-179 -176 -182 0 -10 907 -916 917 -916 5 0 87 79 183 175 l174 176 -457 457
c-251 251 -457 460 -457 465 0 4 205 212 456 463 428 427 455 457 440 473 -14
15 -331 332 -339 338 -2 1 -210 -205 -462 -457z"/>
<path d="M5549 4604 c-96 -96 -176 -177 -178 -179 -2 -2 203 -211 456 -465
l460 -460 -460 -460 -461 -461 174 -174 c96 -96 178 -175 182 -175 5 0 294
286 643 635 l635 635 -639 639 -639 639 -173 -174z"/>
<path d="M633 4134 l-633 -634 635 -635 c349 -349 638 -635 643 -635 4 0 86
79 182 175 l174 175 -460 460 -461 460 460 460 c253 254 458 463 456 465 -69
75 -346 345 -354 344 -5 0 -295 -286 -642 -635z"/>
<path d="M2091 3034 l-455 -455 179 -179 180 -180 457 458 c252 251 457 461
455 465 -5 16 -341 347 -351 347 -6 -1 -216 -206 -465 -456z"/>
<path d="M2678 2451 l-458 -457 175 -175 c97 -96 177 -176 180 -178 7 -6 915
902 915 915 0 10 -333 347 -348 351 -4 1 -213 -204 -464 -456z"/>
<path d="M3678 2734 l-176 -176 460 -460 460 -460 179 178 179 179 -457 457
c-252 252 -461 458 -464 458 -3 0 -85 -79 -181 -176z"/>
<path d="M2404 1460 c-93 -94 -170 -175 -172 -180 -2 -5 283 -295 632 -644
l636 -636 635 635 c349 349 635 639 635 643 0 6 -273 283 -345 351 -3 2 -212
-203 -465 -456 l-460 -460 -458 458 c-251 252 -460 459 -463 459 -3 0 -82 -77
-175 -170z"/>
</g>
</svg>
