<svg width="189" height="100" viewBox="0 0 189 100" fill="none" xmlns="http://www.w3.org/2000/svg">
<path d="M0.504567 0.5H101.969V88.9309H62.2429C62.2182 88.7636 62.1854 88.5517 62.1431 88.3001C62.0296 87.6239 61.848 86.6603 61.5752 85.505C61.0299 83.1963 60.1177 80.1115 58.6493 77.0212C55.7195 70.8549 50.5052 64.5406 41.4754 64.5406C35.4882 64.5406 30.9164 66.0902 27.4343 68.437C23.9563 70.7811 21.5929 73.9018 19.9885 77.0062C18.3848 80.1093 17.5336 83.2066 17.0828 85.5244C16.8572 86.6845 16.7313 87.6522 16.6617 88.3319C16.6376 88.5673 16.6202 88.7683 16.6078 88.9309H1.30864L0.504567 0.5ZM187.373 88.9309H173.31C173.307 88.8166 173.303 88.6846 173.296 88.5361C173.272 87.9686 173.217 87.1607 173.094 86.1922C172.849 84.258 172.333 81.6699 171.242 79.0746C170.152 76.479 168.48 73.8579 165.914 71.8851C163.343 69.9074 159.904 68.6057 155.33 68.6057C149.362 68.6057 145.045 69.8919 141.936 71.859C138.825 73.8275 136.96 76.4552 135.859 79.0746C134.761 81.6884 134.424 84.2937 134.359 86.2384C134.327 87.2123 134.362 88.0249 134.406 88.596C134.416 88.719 134.426 88.8309 134.435 88.9309H111.101V20.8252H138.893L188.166 59.1824L187.373 88.9309ZM134.999 73.6707H135.499V73.1707V65.0406V64.5406H134.999H118.734H118.234V65.0406V73.1707V73.6707H118.734H134.999ZM133.115 58.9653L133.234 59.0365H133.372H175.661H177.131L175.966 58.1402L133.677 25.6199L133.542 25.5162H133.372H117.107H116.607V26.0162V48.7805V49.0636L116.85 49.2093L133.115 58.9653ZM27.337 86.9918C27.337 79.951 32.8057 74.4838 39.8489 74.4838C46.8921 74.4838 52.3609 79.951 52.3609 86.9918C52.3609 94.0326 46.8921 99.5 39.8489 99.5C32.8057 99.5 27.337 94.0326 27.337 86.9918ZM111.101 15.3536V0.5H116.917L133.68 15.3536H111.101ZM142.004 86.9918C142.004 79.951 147.473 74.4838 154.516 74.4838C161.163 74.4838 167.028 79.9611 167.028 86.9918C167.028 94.0326 161.56 99.5 154.516 99.5C147.473 99.5 142.004 94.0326 142.004 86.9918Z" fill="white" fill-opacity="0.4" stroke="white"/>
</svg>
